<mxfile host="app.diagrams.net" modified="2022-08-16T11:39:48.875Z" agent="5.0 (Windows NT 10.0; Win64; x64) AppleWebKit/537.36 (KHTML, like Gecko) Chrome/104.0.0.0 Safari/537.36" etag="lM_KqyM3xRSr314TEtxu" version="20.2.3" type="github">
  <diagram name="Page-1" id="efa7a0a1-bf9b-a30e-e6df-94a7791c09e9">
    <mxGraphModel dx="2012" dy="786" grid="1" gridSize="10" guides="1" tooltips="1" connect="1" arrows="1" fold="1" page="1" pageScale="1" pageWidth="826" pageHeight="1169" background="none" math="0" shadow="0">
      <root>
        <object label="" id="0">
          <mxCell />
        </object>
        <mxCell id="1" parent="0" />
        <mxCell id="1tiuXW9pdLS6u-hAlYC6-114" value="&lt;p style=&quot;margin: 0px; margin-top: 4px; text-align: center; text-decoration: underline;&quot;&gt;&lt;b&gt;Сопроводительный&amp;nbsp;&lt;/b&gt;&lt;/p&gt;&lt;p style=&quot;margin: 0px; margin-top: 4px; text-align: center; text-decoration: underline;&quot;&gt;&lt;b&gt;Паспорт&lt;/b&gt;&lt;/p&gt;&lt;hr&gt;&lt;p style=&quot;margin: 0px; margin-left: 8px;&quot;&gt;Производственный заказ&lt;br&gt;&lt;/p&gt;&lt;p style=&quot;margin: 0px; margin-left: 8px;&quot;&gt;Ключ паспорта(id)&lt;/p&gt;&lt;p style=&quot;margin: 0px; margin-left: 8px;&quot;&gt;&lt;span style=&quot;background-color: initial;&quot;&gt;Номер плавки&lt;/span&gt;&lt;br&gt;&lt;/p&gt;&lt;p style=&quot;margin: 0px; margin-left: 8px;&quot;&gt;Номер партии&lt;/p&gt;&lt;p style=&quot;margin: 0px; margin-left: 8px;&quot;&gt;ТЭК&lt;/p&gt;" style="verticalAlign=top;align=left;overflow=fill;fontSize=12;fontFamily=Helvetica;html=1;strokeColor=#003366;shadow=1;fillColor=#D4E1F5;fontColor=#003366" vertex="1" parent="1">
          <mxGeometry x="253.00000000000006" y="505.00000000000045" width="160" height="160" as="geometry" />
        </mxCell>
        <mxCell id="1tiuXW9pdLS6u-hAlYC6-115" value="&lt;p style=&quot;margin: 0px; margin-top: 4px; text-align: center; text-decoration: underline;&quot;&gt;&lt;b&gt;Заготовка.(ПФ)&lt;/b&gt;&lt;/p&gt;&lt;hr&gt;&lt;p style=&quot;margin: 0px; margin-left: 8px;&quot;&gt;id_zagotovki&lt;/p&gt;&lt;p style=&quot;margin: 0px; margin-left: 8px;&quot;&gt;Серийный номер&lt;/p&gt;&lt;p style=&quot;margin: 0px; margin-left: 8px;&quot;&gt;Ключ паспорта(id)&lt;br&gt;&lt;/p&gt;&lt;p style=&quot;margin: 0px; margin-left: 8px;&quot;&gt;Номер плавки&lt;/p&gt;&lt;p style=&quot;margin: 0px; margin-left: 8px;&quot;&gt;Номер партии&lt;/p&gt;" style="verticalAlign=top;align=left;overflow=fill;fontSize=12;fontFamily=Helvetica;html=1;strokeColor=#003366;shadow=1;fillColor=#D4E1F5;fontColor=#003366" vertex="1" parent="1">
          <mxGeometry x="666" y="510" width="160" height="120" as="geometry" />
        </mxCell>
        <mxCell id="1tiuXW9pdLS6u-hAlYC6-116" value="&lt;p style=&quot;margin: 0px; margin-top: 4px; text-align: center; text-decoration: underline;&quot;&gt;&lt;b&gt;ТЭК&lt;/b&gt;&lt;/p&gt;&lt;hr&gt;&lt;p style=&quot;margin: 0px; margin-left: 8px;&quot;&gt;Номер ТЭК&lt;/p&gt;&lt;p style=&quot;margin: 0px; margin-left: 8px;&quot;&gt;Цех&lt;/p&gt;&lt;p style=&quot;margin: 0px; margin-left: 8px;&quot;&gt;Вид изделия&lt;/p&gt;" style="verticalAlign=top;align=left;overflow=fill;fontSize=12;fontFamily=Helvetica;html=1;strokeColor=#003366;shadow=1;fillColor=#D4E1F5;fontColor=#003366" vertex="1" parent="1">
          <mxGeometry x="666" y="80" width="160" height="90" as="geometry" />
        </mxCell>
        <mxCell id="1tiuXW9pdLS6u-hAlYC6-117" value="&lt;p style=&quot;margin: 0px; margin-top: 4px; text-align: center; text-decoration: underline;&quot;&gt;&lt;b&gt;Изделие&lt;/b&gt;&lt;/p&gt;&lt;hr&gt;&lt;p style=&quot;margin: 0px; margin-left: 8px;&quot;&gt;Сплав&lt;/p&gt;&lt;p style=&quot;margin: 0px; margin-left: 8px;&quot;&gt;Тип (поковка, сляб..)&lt;/p&gt;&lt;p style=&quot;margin: 0px; margin-left: 8px;&quot;&gt;Параметры размеров&lt;/p&gt;" style="verticalAlign=top;align=left;overflow=fill;fontSize=12;fontFamily=Helvetica;html=1;strokeColor=#003366;shadow=1;fillColor=#D4E1F5;fontColor=#003366" vertex="1" parent="1">
          <mxGeometry x="260" y="80" width="160" height="90" as="geometry" />
        </mxCell>
        <mxCell id="1tiuXW9pdLS6u-hAlYC6-118" value="&lt;p style=&quot;margin: 0px; margin-top: 4px; text-align: center; text-decoration: underline;&quot;&gt;&lt;b&gt;Производственный&lt;/b&gt;&lt;/p&gt;&lt;p style=&quot;margin: 0px; margin-top: 4px; text-align: center; text-decoration: underline;&quot;&gt;&lt;b&gt;заказ&lt;/b&gt;&lt;/p&gt;&lt;hr&gt;&lt;p style=&quot;margin: 0px; margin-left: 8px;&quot;&gt;Цех&lt;/p&gt;&lt;p style=&quot;margin: 0px; margin-left: 8px;&quot;&gt;ТЭК&lt;/p&gt;&lt;p style=&quot;margin: 0px 0px 0px 8px;&quot;&gt;Сплав&lt;/p&gt;&lt;p style=&quot;margin: 0px 0px 0px 8px;&quot;&gt;Тип (поковка, сляб..)&lt;/p&gt;&lt;p style=&quot;margin: 0px 0px 0px 8px;&quot;&gt;Параметры размеров&lt;/p&gt;&lt;p style=&quot;margin: 0px 0px 0px 8px;&quot;&gt;КЗ (id) ???&lt;br&gt;&lt;/p&gt;" style="verticalAlign=top;align=left;overflow=fill;fontSize=12;fontFamily=Helvetica;html=1;strokeColor=#003366;shadow=1;fillColor=#D4E1F5;fontColor=#003366;labelBackgroundColor=#CCFFCC;" vertex="1" parent="1">
          <mxGeometry x="460" y="330" width="160" height="150" as="geometry" />
        </mxCell>
        <mxCell id="1tiuXW9pdLS6u-hAlYC6-119" value="&lt;p style=&quot;margin: 0px; margin-top: 4px; text-align: center; text-decoration: underline;&quot;&gt;&lt;b&gt;Производственная&lt;/b&gt;&lt;/p&gt;&lt;p style=&quot;margin: 0px; margin-top: 4px; text-align: center; text-decoration: underline;&quot;&gt;&lt;b&gt;цепочка для изделия&lt;/b&gt;&lt;/p&gt;&lt;hr&gt;&lt;p style=&quot;margin: 0px; margin-left: 8px;&quot;&gt;ТЭК1&lt;/p&gt;&lt;p style=&quot;margin: 0px 0px 0px 8px;&quot;&gt;..&lt;/p&gt;&lt;p style=&quot;margin: 0px 0px 0px 8px;&quot;&gt;ТЭКn&lt;br&gt;&lt;/p&gt;&lt;p style=&quot;margin: 0px 0px 0px 8px;&quot;&gt;&lt;span style=&quot;&quot;&gt;ТЭКn+1&lt;/span&gt;&lt;br&gt;&lt;/p&gt;" style="verticalAlign=top;align=left;overflow=fill;fontSize=12;fontFamily=Helvetica;html=1;strokeColor=#003366;shadow=1;fillColor=#D4E1F5;fontColor=#003366;dashed=1;labelBackgroundColor=#CCFFCC;" vertex="1" parent="1">
          <mxGeometry x="460" y="190" width="160" height="120" as="geometry" />
        </mxCell>
        <mxCell id="1tiuXW9pdLS6u-hAlYC6-120" value="Состоит из" style="endArrow=open;endSize=12;dashed=1;exitX=0.5;exitY=1;exitDx=0;exitDy=0;entryX=-0.021;entryY=0.062;entryDx=0;entryDy=0;entryPerimeter=0;" edge="1" parent="1" source="1tiuXW9pdLS6u-hAlYC6-117" target="1tiuXW9pdLS6u-hAlYC6-119">
          <mxGeometry y="40" as="geometry">
            <mxPoint x="411.08000000000106" y="286.3700000000008" as="sourcePoint" />
            <mxPoint x="450" y="260.0027272727277" as="targetPoint" />
            <Array as="points">
              <mxPoint x="360" y="190" />
              <mxPoint x="390" y="200" />
            </Array>
            <mxPoint x="-58" y="16" as="offset" />
          </mxGeometry>
        </mxCell>
        <mxCell id="1tiuXW9pdLS6u-hAlYC6-121" value="" style="endArrow=open;endSize=12;startArrow=diamondThin;startSize=14;startFill=0;edgeStyle=orthogonalEdgeStyle;entryX=0.003;entryY=0.329;entryDx=0;entryDy=0;entryPerimeter=0;exitX=1.005;exitY=0.411;exitDx=0;exitDy=0;exitPerimeter=0;" edge="1" parent="1" source="1tiuXW9pdLS6u-hAlYC6-119" target="1tiuXW9pdLS6u-hAlYC6-116">
          <mxGeometry x="-320" y="315" as="geometry">
            <mxPoint x="390" y="325.00000000000045" as="sourcePoint" />
            <mxPoint x="260" y="379.9999999999998" as="targetPoint" />
            <Array as="points">
              <mxPoint x="640" y="239" />
              <mxPoint x="650" y="240" />
              <mxPoint x="650" y="110" />
            </Array>
          </mxGeometry>
        </mxCell>
        <mxCell id="1tiuXW9pdLS6u-hAlYC6-122" value="0..n" style="resizable=0;align=left;verticalAlign=top;labelBackgroundColor=#CCFFCC;fontSize=10;strokeColor=#003366;shadow=1;fillColor=#D4E1F5;fontColor=#003366" connectable="0" vertex="1" parent="1tiuXW9pdLS6u-hAlYC6-121">
          <mxGeometry x="-1" relative="1" as="geometry">
            <mxPoint x="10" as="offset" />
          </mxGeometry>
        </mxCell>
        <mxCell id="1tiuXW9pdLS6u-hAlYC6-124" value="&lt;p style=&quot;margin: 0px; margin-top: 4px; text-align: center; text-decoration: underline;&quot;&gt;&lt;b&gt;Заказ клиента&lt;/b&gt;&lt;/p&gt;&lt;hr&gt;&lt;p style=&quot;margin: 0px; margin-left: 8px;&quot;&gt;КЗ (id)&lt;/p&gt;&lt;p style=&quot;margin: 0px; margin-left: 8px;&quot;&gt;Изделие&lt;/p&gt;" style="verticalAlign=top;align=left;overflow=fill;fontSize=12;fontFamily=Helvetica;html=1;strokeColor=#003366;shadow=1;fillColor=#D4E1F5;fontColor=#003366;labelBackgroundColor=#FFFFCC;" vertex="1" parent="1">
          <mxGeometry x="30" y="80" width="160" height="90" as="geometry" />
        </mxCell>
        <mxCell id="1tiuXW9pdLS6u-hAlYC6-125" value="" style="endArrow=open;endSize=12;startArrow=diamondThin;startSize=14;startFill=0;edgeStyle=orthogonalEdgeStyle;exitX=1;exitY=0.25;exitDx=0;exitDy=0;entryX=-0.014;entryY=0.177;entryDx=0;entryDy=0;entryPerimeter=0;" edge="1" parent="1" source="1tiuXW9pdLS6u-hAlYC6-124" target="1tiuXW9pdLS6u-hAlYC6-117">
          <mxGeometry x="-330" y="325" as="geometry">
            <mxPoint x="660" y="140" as="sourcePoint" />
            <mxPoint x="270" y="100" as="targetPoint" />
            <Array as="points">
              <mxPoint x="220" y="103" />
              <mxPoint x="220" y="100" />
              <mxPoint x="240" y="100" />
              <mxPoint x="240" y="96" />
            </Array>
          </mxGeometry>
        </mxCell>
        <mxCell id="1tiuXW9pdLS6u-hAlYC6-126" value="0..n" style="resizable=0;align=left;verticalAlign=top;labelBackgroundColor=#ffffff;fontSize=10;strokeColor=#003366;shadow=1;fillColor=#D4E1F5;fontColor=#003366" connectable="0" vertex="1" parent="1tiuXW9pdLS6u-hAlYC6-125">
          <mxGeometry x="-1" relative="1" as="geometry">
            <mxPoint x="10" as="offset" />
          </mxGeometry>
        </mxCell>
        <mxCell id="1tiuXW9pdLS6u-hAlYC6-127" value="" style="endArrow=open;endSize=12;startArrow=diamondThin;startSize=14;startFill=0;edgeStyle=orthogonalEdgeStyle;entryX=0;entryY=0.25;entryDx=0;entryDy=0;exitX=-0.002;exitY=0.206;exitDx=0;exitDy=0;exitPerimeter=0;" edge="1" parent="1" source="1tiuXW9pdLS6u-hAlYC6-118" target="1tiuXW9pdLS6u-hAlYC6-119">
          <mxGeometry x="-579.97" y="431.34000000000003" as="geometry">
            <mxPoint x="360.8299999999999" y="355.6600000000001" as="sourcePoint" />
            <mxPoint x="363.3899999999999" y="230.00000000000009" as="targetPoint" />
            <Array as="points">
              <mxPoint x="440" y="361" />
              <mxPoint x="410" y="360" />
              <mxPoint x="410" y="220" />
            </Array>
          </mxGeometry>
        </mxCell>
        <mxCell id="1tiuXW9pdLS6u-hAlYC6-128" value="0..n" style="resizable=0;align=left;verticalAlign=top;labelBackgroundColor=#ffffff;fontSize=10;strokeColor=#003366;shadow=1;fillColor=#D4E1F5;fontColor=#003366" connectable="0" vertex="1" parent="1tiuXW9pdLS6u-hAlYC6-127">
          <mxGeometry x="-1" relative="1" as="geometry">
            <mxPoint x="-20" as="offset" />
          </mxGeometry>
        </mxCell>
        <mxCell id="1tiuXW9pdLS6u-hAlYC6-129" value="производство" style="ellipse;whiteSpace=wrap;html=1;aspect=fixed;dashed=1;" vertex="1" parent="1">
          <mxGeometry x="260" y="370" width="90" height="90" as="geometry" />
        </mxCell>
        <mxCell id="1tiuXW9pdLS6u-hAlYC6-130" value="" style="endArrow=open;endSize=12;dashed=1;exitX=-0.01;exitY=0.403;exitDx=0;exitDy=0;exitPerimeter=0;" edge="1" parent="1" source="1tiuXW9pdLS6u-hAlYC6-118" target="1tiuXW9pdLS6u-hAlYC6-129">
          <mxGeometry y="40" as="geometry">
            <mxPoint x="240" y="280" as="sourcePoint" />
            <mxPoint x="250" y="330" as="targetPoint" />
            <Array as="points">
              <mxPoint x="400" y="390" />
              <mxPoint x="370" y="390" />
            </Array>
            <mxPoint x="-8" y="-4" as="offset" />
          </mxGeometry>
        </mxCell>
        <mxCell id="1tiuXW9pdLS6u-hAlYC6-132" value="создает" style="endArrow=open;endSize=12;dashed=1;exitX=0.262;exitY=0.986;exitDx=0;exitDy=0;exitPerimeter=0;entryX=0.161;entryY=0;entryDx=0;entryDy=0;entryPerimeter=0;" edge="1" parent="1" source="1tiuXW9pdLS6u-hAlYC6-129" target="1tiuXW9pdLS6u-hAlYC6-114">
          <mxGeometry as="geometry">
            <mxPoint x="370" y="200" as="sourcePoint" />
            <mxPoint x="240" y="500" as="targetPoint" />
            <Array as="points" />
            <mxPoint x="-32" y="-14" as="offset" />
          </mxGeometry>
        </mxCell>
        <mxCell id="1tiuXW9pdLS6u-hAlYC6-133" value="" style="endArrow=open;endSize=12;startArrow=diamondThin;startSize=14;startFill=0;edgeStyle=orthogonalEdgeStyle;exitX=1.012;exitY=0.176;exitDx=0;exitDy=0;exitPerimeter=0;" edge="1" parent="1" source="1tiuXW9pdLS6u-hAlYC6-114">
          <mxGeometry x="-586.97" y="611.34" as="geometry">
            <mxPoint x="390" y="570" as="sourcePoint" />
            <mxPoint x="460" y="410" as="targetPoint" />
            <Array as="points">
              <mxPoint x="440" y="533" />
              <mxPoint x="440" y="410" />
            </Array>
          </mxGeometry>
        </mxCell>
        <mxCell id="1tiuXW9pdLS6u-hAlYC6-134" value="0..n" style="resizable=0;align=left;verticalAlign=top;labelBackgroundColor=#ffffff;fontSize=10;strokeColor=#003366;shadow=1;fillColor=#D4E1F5;fontColor=#003366" connectable="0" vertex="1" parent="1tiuXW9pdLS6u-hAlYC6-133">
          <mxGeometry x="-1" relative="1" as="geometry">
            <mxPoint x="-20" as="offset" />
          </mxGeometry>
        </mxCell>
        <mxCell id="1tiuXW9pdLS6u-hAlYC6-135" value="" style="endArrow=open;endSize=12;startArrow=diamondThin;startSize=14;startFill=0;edgeStyle=orthogonalEdgeStyle;entryX=1;entryY=0.5;entryDx=0;entryDy=0;" edge="1" parent="1" source="1tiuXW9pdLS6u-hAlYC6-115" target="1tiuXW9pdLS6u-hAlYC6-114">
          <mxGeometry x="-496.97" y="801.34" as="geometry">
            <mxPoint x="600" y="610" as="sourcePoint" />
            <mxPoint x="430" y="590" as="targetPoint" />
            <Array as="points">
              <mxPoint x="550" y="560" />
              <mxPoint x="550" y="585" />
            </Array>
          </mxGeometry>
        </mxCell>
        <mxCell id="1tiuXW9pdLS6u-hAlYC6-136" value="0..n" style="resizable=0;align=left;verticalAlign=top;labelBackgroundColor=#ffffff;fontSize=10;strokeColor=#003366;shadow=1;fillColor=#D4E1F5;fontColor=#003366" connectable="0" vertex="1" parent="1tiuXW9pdLS6u-hAlYC6-135">
          <mxGeometry x="-1" relative="1" as="geometry">
            <mxPoint x="-20" as="offset" />
          </mxGeometry>
        </mxCell>
        <mxCell id="1tiuXW9pdLS6u-hAlYC6-139" value="&lt;p style=&quot;margin: 0px; margin-top: 4px; text-align: center; text-decoration: underline;&quot;&gt;&lt;b&gt;Заказ на производство&lt;/b&gt;&lt;/p&gt;&lt;hr&gt;&lt;p style=&quot;margin: 0px; margin-left: 8px;&quot;&gt;Сплав&lt;/p&gt;&lt;p style=&quot;margin: 0px; margin-left: 8px;&quot;&gt;Тип (поковка, сляб..)&lt;/p&gt;&lt;p style=&quot;margin: 0px; margin-left: 8px;&quot;&gt;Параметры размеров&lt;/p&gt;&lt;p style=&quot;margin: 0px 0px 0px 8px;&quot;&gt;&lt;span style=&quot;&quot;&gt;Номер плавки&lt;/span&gt;&lt;br&gt;&lt;/p&gt;&lt;p style=&quot;margin: 0px 0px 0px 8px;&quot;&gt;Номер партии&lt;/p&gt;" style="verticalAlign=top;align=left;overflow=fill;fontSize=12;fontFamily=Helvetica;html=1;strokeColor=#003366;shadow=1;fillColor=#D4E1F5;fontColor=#003366;labelBackgroundColor=#FFFFCC;" vertex="1" parent="1">
          <mxGeometry x="40" y="720" width="160" height="140" as="geometry" />
        </mxCell>
        <mxCell id="1tiuXW9pdLS6u-hAlYC6-141" value="&lt;p style=&quot;margin: 0px; margin-top: 4px; text-align: center; text-decoration: underline;&quot;&gt;&lt;b&gt;Этап производства&lt;/b&gt;&lt;/p&gt;&lt;hr&gt;&lt;p style=&quot;margin: 0px; margin-left: 8px;&quot;&gt;&lt;span style=&quot;&quot;&gt;трудозатраты (список)&lt;/span&gt;&lt;br&gt;&lt;/p&gt;&lt;p style=&quot;margin: 0px; margin-left: 8px;&quot;&gt;расход (список)&lt;/p&gt;&lt;p style=&quot;margin: 0px; margin-left: 8px;&quot;&gt;выпуск (список)&lt;br&gt;&lt;/p&gt;" style="verticalAlign=top;align=left;overflow=fill;fontSize=12;fontFamily=Helvetica;html=1;strokeColor=#003366;shadow=1;fillColor=#D4E1F5;fontColor=#003366;labelBackgroundColor=#FFFFCC;" vertex="1" parent="1">
          <mxGeometry x="40" y="900" width="160" height="90" as="geometry" />
        </mxCell>
        <mxCell id="1tiuXW9pdLS6u-hAlYC6-143" value="интеграция" style="ellipse;whiteSpace=wrap;html=1;aspect=fixed;dashed=1;labelBackgroundColor=none;fillColor=default;" vertex="1" parent="1">
          <mxGeometry x="253" y="730" width="70" height="70" as="geometry" />
        </mxCell>
        <mxCell id="1tiuXW9pdLS6u-hAlYC6-144" value="" style="endArrow=open;endSize=12;dashed=1;exitX=0.106;exitY=1.008;exitDx=0;exitDy=0;entryX=0.671;entryY=0.036;entryDx=0;entryDy=0;exitPerimeter=0;entryPerimeter=0;" edge="1" parent="1" target="1tiuXW9pdLS6u-hAlYC6-143" source="1tiuXW9pdLS6u-hAlYC6-114">
          <mxGeometry x="-160" y="230" as="geometry">
            <mxPoint x="300" y="595" as="sourcePoint" />
            <mxPoint x="90" y="520" as="targetPoint" />
            <Array as="points">
              <mxPoint x="280" y="700" />
            </Array>
            <mxPoint x="-8" y="-4" as="offset" />
          </mxGeometry>
        </mxCell>
        <mxCell id="1tiuXW9pdLS6u-hAlYC6-145" value="создает" style="endArrow=open;endSize=12;dashed=1;entryX=0.5;entryY=0;entryDx=0;entryDy=0;" edge="1" parent="1" source="1tiuXW9pdLS6u-hAlYC6-143" target="1tiuXW9pdLS6u-hAlYC6-139">
          <mxGeometry as="geometry">
            <mxPoint x="210" y="390" as="sourcePoint" />
            <mxPoint x="80" y="690" as="targetPoint" />
            <Array as="points">
              <mxPoint x="200" y="680" />
              <mxPoint x="170" y="660" />
              <mxPoint x="140" y="670" />
            </Array>
            <mxPoint x="-39" y="-47" as="offset" />
          </mxGeometry>
        </mxCell>
        <mxCell id="1tiuXW9pdLS6u-hAlYC6-146" value="" style="endArrow=open;endSize=12;startArrow=diamondThin;startSize=14;startFill=0;edgeStyle=orthogonalEdgeStyle;entryX=0.009;entryY=0.08;entryDx=0;entryDy=0;exitX=-0.009;exitY=0.374;exitDx=0;exitDy=0;exitPerimeter=0;entryPerimeter=0;labelBackgroundColor=#FFFFCC;" edge="1" parent="1" source="1tiuXW9pdLS6u-hAlYC6-141" target="1tiuXW9pdLS6u-hAlYC6-139">
          <mxGeometry x="-1009.97" y="991.34" as="geometry">
            <mxPoint x="29.679999999999836" y="920.8999999999999" as="sourcePoint" />
            <mxPoint x="30" y="780" as="targetPoint" />
            <Array as="points">
              <mxPoint x="10" y="934" />
              <mxPoint x="10" y="731" />
            </Array>
          </mxGeometry>
        </mxCell>
        <mxCell id="1tiuXW9pdLS6u-hAlYC6-147" value="0..n" style="resizable=0;align=left;verticalAlign=top;labelBackgroundColor=#FFFFCC;fontSize=10;strokeColor=#003366;shadow=1;fillColor=#D4E1F5;fontColor=#003366" connectable="0" vertex="1" parent="1tiuXW9pdLS6u-hAlYC6-146">
          <mxGeometry x="-1" relative="1" as="geometry">
            <mxPoint x="-20" as="offset" />
          </mxGeometry>
        </mxCell>
        <mxCell id="1tiuXW9pdLS6u-hAlYC6-148" value="&lt;p style=&quot;margin: 0px; margin-top: 4px; text-align: center; text-decoration: underline;&quot;&gt;&lt;b&gt;Операции MES&lt;/b&gt;&lt;/p&gt;&lt;hr&gt;&lt;p style=&quot;margin: 0px; margin-left: 8px;&quot;&gt;id_zagotovki&lt;/p&gt;&lt;p style=&quot;margin: 0px; margin-left: 8px;&quot;&gt;Ключ паспорта(id)&lt;br&gt;&lt;/p&gt;&lt;p style=&quot;margin: 0px; margin-left: 8px;&quot;&gt;Номер плавки&lt;/p&gt;&lt;p style=&quot;margin: 0px; margin-left: 8px;&quot;&gt;Номер партии&lt;/p&gt;&lt;p style=&quot;margin: 0px; margin-left: 8px;&quot;&gt;&lt;b&gt;&lt;font style=&quot;font-size: 13px;&quot;&gt;информация о трудозатратах&lt;/font&gt;&lt;/b&gt;&lt;/p&gt;&lt;p style=&quot;margin: 0px; margin-left: 8px;&quot;&gt;&lt;br&gt;&lt;/p&gt;" style="verticalAlign=top;align=left;overflow=fill;fontSize=12;fontFamily=Helvetica;html=1;strokeColor=#003366;shadow=1;fillColor=#D4E1F5;fontColor=#003366" vertex="1" parent="1">
          <mxGeometry x="639" y="720" width="214" height="125" as="geometry" />
        </mxCell>
        <mxCell id="1tiuXW9pdLS6u-hAlYC6-149" value="создает" style="endArrow=open;endSize=12;dashed=1;exitX=1;exitY=1;exitDx=0;exitDy=0;entryX=0.25;entryY=0;entryDx=0;entryDy=0;" edge="1" parent="1" source="1tiuXW9pdLS6u-hAlYC6-129" target="1tiuXW9pdLS6u-hAlYC6-148">
          <mxGeometry as="geometry">
            <mxPoint x="369.99999999999994" y="420" as="sourcePoint" />
            <mxPoint x="392.18000000000023" y="496.26000000000045" as="targetPoint" />
            <Array as="points">
              <mxPoint x="470" y="510" />
              <mxPoint x="550" y="650" />
              <mxPoint x="660" y="690" />
            </Array>
            <mxPoint x="64" y="104" as="offset" />
          </mxGeometry>
        </mxCell>
        <mxCell id="1tiuXW9pdLS6u-hAlYC6-150" value="" style="endArrow=open;endSize=12;startArrow=diamondThin;startSize=14;startFill=0;edgeStyle=orthogonalEdgeStyle;exitX=1;exitY=0.5;exitDx=0;exitDy=0;entryX=1;entryY=0.5;entryDx=0;entryDy=0;" edge="1" parent="1" source="1tiuXW9pdLS6u-hAlYC6-148" target="1tiuXW9pdLS6u-hAlYC6-115">
          <mxGeometry x="-486.97" y="811.34" as="geometry">
            <mxPoint x="676" y="570.0000000000002" as="sourcePoint" />
            <mxPoint x="840" y="595" as="targetPoint" />
            <Array as="points">
              <mxPoint x="890" y="783" />
              <mxPoint x="890" y="560" />
            </Array>
          </mxGeometry>
        </mxCell>
        <mxCell id="1tiuXW9pdLS6u-hAlYC6-151" value="0..n" style="resizable=0;align=left;verticalAlign=top;labelBackgroundColor=#ffffff;fontSize=10;strokeColor=#003366;shadow=1;fillColor=#D4E1F5;fontColor=#003366" connectable="0" vertex="1" parent="1tiuXW9pdLS6u-hAlYC6-150">
          <mxGeometry x="-1" relative="1" as="geometry">
            <mxPoint x="-20" as="offset" />
          </mxGeometry>
        </mxCell>
        <mxCell id="1tiuXW9pdLS6u-hAlYC6-152" value="&lt;p style=&quot;margin: 0px; margin-top: 4px; text-align: center; text-decoration: underline;&quot;&gt;&lt;b&gt;Выпуск&lt;/b&gt;&lt;/p&gt;&lt;hr&gt;&lt;p style=&quot;margin: 0px; margin-left: 8px;&quot;&gt;Номенклатура.&lt;/p&gt;&lt;p style=&quot;margin: 0px; margin-left: 8px;&quot;&gt;&lt;span style=&quot;&quot;&gt;Серия&lt;/span&gt;&lt;br&gt;&lt;/p&gt;&lt;p style=&quot;margin: 0px 0px 0px 8px;&quot;&gt;&lt;span style=&quot;&quot;&gt;Номер плавки&lt;/span&gt;&lt;br&gt;&lt;/p&gt;&lt;p style=&quot;margin: 0px 0px 0px 8px;&quot;&gt;Номер партии&lt;/p&gt;&lt;p style=&quot;margin: 0px; margin-left: 8px;&quot;&gt;Количество&lt;/p&gt;" style="verticalAlign=top;align=left;overflow=fill;fontSize=12;fontFamily=Helvetica;html=1;strokeColor=#003366;shadow=1;fillColor=#D4E1F5;fontColor=#003366;labelBackgroundColor=#FFFFCC;" vertex="1" parent="1">
          <mxGeometry x="570" y="930" width="130" height="120" as="geometry" />
        </mxCell>
        <mxCell id="1tiuXW9pdLS6u-hAlYC6-153" value="&lt;p style=&quot;margin: 0px; margin-top: 4px; text-align: center; text-decoration: underline;&quot;&gt;&lt;b&gt;Трудозатраты&lt;/b&gt;&lt;/p&gt;&lt;hr&gt;&lt;p style=&quot;margin: 0px; margin-left: 8px;&quot;&gt;Тип затрат&lt;/p&gt;&lt;p style=&quot;margin: 0px; margin-left: 8px;&quot;&gt;количество&lt;/p&gt;" style="verticalAlign=top;align=left;overflow=fill;fontSize=12;fontFamily=Helvetica;html=1;strokeColor=#003366;shadow=1;fillColor=#D4E1F5;fontColor=#003366;labelBackgroundColor=#FFFFCC;" vertex="1" parent="1">
          <mxGeometry x="400" y="930" width="140" height="90" as="geometry" />
        </mxCell>
        <mxCell id="1tiuXW9pdLS6u-hAlYC6-154" value="&lt;p style=&quot;margin: 0px; margin-top: 4px; text-align: center; text-decoration: underline;&quot;&gt;&lt;b&gt;Расход&lt;/b&gt;&lt;/p&gt;&lt;hr&gt;&lt;p style=&quot;margin: 0px; margin-left: 8px;&quot;&gt;Номенклатура.&lt;/p&gt;&lt;p style=&quot;margin: 0px; margin-left: 8px;&quot;&gt;Серия&lt;/p&gt;&lt;p style=&quot;margin: 0px; margin-left: 8px;&quot;&gt;Количество&lt;/p&gt;" style="verticalAlign=top;align=left;overflow=fill;fontSize=12;fontFamily=Helvetica;html=1;strokeColor=#003366;shadow=1;fillColor=#D4E1F5;fontColor=#003366;labelBackgroundColor=#FFFFCC;" vertex="1" parent="1">
          <mxGeometry x="230" y="930" width="140" height="90" as="geometry" />
        </mxCell>
        <mxCell id="1tiuXW9pdLS6u-hAlYC6-155" value="" style="endArrow=open;endSize=12;dashed=1;entryX=0.326;entryY=-0.032;entryDx=0;entryDy=0;entryPerimeter=0;exitX=0.997;exitY=0.629;exitDx=0;exitDy=0;exitPerimeter=0;labelBackgroundColor=#FFFFCC;" edge="1" parent="1" source="1tiuXW9pdLS6u-hAlYC6-143" target="1tiuXW9pdLS6u-hAlYC6-152">
          <mxGeometry x="-150" y="240" as="geometry">
            <mxPoint x="390" y="700" as="sourcePoint" />
            <mxPoint x="440" y="790" as="targetPoint" />
            <Array as="points">
              <mxPoint x="430" y="780" />
              <mxPoint x="530" y="830" />
            </Array>
            <mxPoint x="-8" y="-4" as="offset" />
          </mxGeometry>
        </mxCell>
        <mxCell id="1tiuXW9pdLS6u-hAlYC6-156" value="" style="endArrow=open;endSize=12;dashed=1;entryX=0.871;entryY=0.006;entryDx=0;entryDy=0;entryPerimeter=0;exitX=0.935;exitY=0.802;exitDx=0;exitDy=0;exitPerimeter=0;labelBackgroundColor=#FFFFCC;" edge="1" parent="1" source="1tiuXW9pdLS6u-hAlYC6-143" target="1tiuXW9pdLS6u-hAlYC6-153">
          <mxGeometry x="-212.79000000000002" y="265.97" as="geometry">
            <mxPoint x="259.99999999999994" y="800" as="sourcePoint" />
            <mxPoint x="549.5900000000001" y="952.1300000000001" as="targetPoint" />
            <Array as="points">
              <mxPoint x="410" y="810" />
              <mxPoint x="470" y="850" />
            </Array>
            <mxPoint x="-8" y="-4" as="offset" />
          </mxGeometry>
        </mxCell>
        <mxCell id="1tiuXW9pdLS6u-hAlYC6-157" value="" style="endArrow=open;endSize=12;dashed=1;entryX=0.855;entryY=-0.004;entryDx=0;entryDy=0;entryPerimeter=0;exitX=0.811;exitY=0.964;exitDx=0;exitDy=0;exitPerimeter=0;labelBackgroundColor=#FFFFCC;" edge="1" parent="1" source="1tiuXW9pdLS6u-hAlYC6-143" target="1tiuXW9pdLS6u-hAlYC6-154">
          <mxGeometry x="-271.24" y="339.83000000000004" as="geometry">
            <mxPoint x="260.0000000000003" y="859.9999999999999" as="sourcePoint" />
            <mxPoint x="463.49000000000007" y="1004.4000000000002" as="targetPoint" />
            <Array as="points">
              <mxPoint x="330" y="810" />
              <mxPoint x="352" y="840" />
              <mxPoint x="360" y="880" />
            </Array>
            <mxPoint x="-8" y="-4" as="offset" />
          </mxGeometry>
        </mxCell>
        <mxCell id="1tiuXW9pdLS6u-hAlYC6-158" value="" style="endArrow=open;endSize=12;startArrow=diamondThin;startSize=14;startFill=0;edgeStyle=orthogonalEdgeStyle;exitX=0.843;exitY=1.049;exitDx=0;exitDy=0;exitPerimeter=0;entryX=0.86;entryY=1.035;entryDx=0;entryDy=0;entryPerimeter=0;labelBackgroundColor=#FFFFCC;" edge="1" parent="1" source="1tiuXW9pdLS6u-hAlYC6-154" target="1tiuXW9pdLS6u-hAlYC6-141">
          <mxGeometry x="-859.97" y="1160.14" as="geometry">
            <mxPoint x="360" y="1040" as="sourcePoint" />
            <mxPoint x="170" y="1040" as="targetPoint" />
            <Array as="points">
              <mxPoint x="348" y="1050" />
              <mxPoint x="178" y="1050" />
            </Array>
          </mxGeometry>
        </mxCell>
        <mxCell id="1tiuXW9pdLS6u-hAlYC6-159" value="0..n" style="resizable=0;align=left;verticalAlign=top;labelBackgroundColor=#FFFFCC;fontSize=10;strokeColor=#003366;shadow=1;fillColor=#D4E1F5;fontColor=#003366" connectable="0" vertex="1" parent="1tiuXW9pdLS6u-hAlYC6-158">
          <mxGeometry x="-1" relative="1" as="geometry">
            <mxPoint x="-20" as="offset" />
          </mxGeometry>
        </mxCell>
        <mxCell id="1tiuXW9pdLS6u-hAlYC6-160" value="" style="endArrow=open;endSize=12;startArrow=diamondThin;startSize=14;startFill=0;edgeStyle=orthogonalEdgeStyle;entryX=0.593;entryY=1.025;entryDx=0;entryDy=0;entryPerimeter=0;labelBackgroundColor=#FFFFCC;" edge="1" parent="1" source="1tiuXW9pdLS6u-hAlYC6-152" target="1tiuXW9pdLS6u-hAlYC6-141">
          <mxGeometry x="-699.97" y="1170.14" as="geometry">
            <mxPoint x="520" y="1049.9999999999998" as="sourcePoint" />
            <mxPoint x="330" y="1049.9999999999998" as="targetPoint" />
            <Array as="points">
              <mxPoint x="635" y="1090" />
              <mxPoint x="135" y="1090" />
            </Array>
          </mxGeometry>
        </mxCell>
        <mxCell id="1tiuXW9pdLS6u-hAlYC6-161" value="0..n" style="resizable=0;align=left;verticalAlign=top;labelBackgroundColor=#FFFFCC;fontSize=10;strokeColor=#003366;shadow=1;fillColor=#D4E1F5;fontColor=#003366" connectable="0" vertex="1" parent="1tiuXW9pdLS6u-hAlYC6-160">
          <mxGeometry x="-1" relative="1" as="geometry">
            <mxPoint x="-20" as="offset" />
          </mxGeometry>
        </mxCell>
        <mxCell id="1tiuXW9pdLS6u-hAlYC6-162" value="" style="endArrow=open;endSize=12;startArrow=diamondThin;startSize=14;startFill=0;edgeStyle=orthogonalEdgeStyle;exitX=0.361;exitY=1.03;exitDx=0;exitDy=0;exitPerimeter=0;entryX=0.75;entryY=1;entryDx=0;entryDy=0;labelBackgroundColor=#FFFFCC;" edge="1" parent="1" source="1tiuXW9pdLS6u-hAlYC6-153" target="1tiuXW9pdLS6u-hAlYC6-141">
          <mxGeometry x="-769.97" y="1180.14" as="geometry">
            <mxPoint x="450" y="1059.9999999999998" as="sourcePoint" />
            <mxPoint x="260" y="1059.9999999999998" as="targetPoint" />
            <Array as="points">
              <mxPoint x="451" y="1070" />
              <mxPoint x="160" y="1070" />
            </Array>
          </mxGeometry>
        </mxCell>
        <mxCell id="1tiuXW9pdLS6u-hAlYC6-163" value="0..n" style="resizable=0;align=left;verticalAlign=top;labelBackgroundColor=#FFFFCC;fontSize=10;strokeColor=#003366;shadow=1;fillColor=#D4E1F5;fontColor=#003366" connectable="0" vertex="1" parent="1tiuXW9pdLS6u-hAlYC6-162">
          <mxGeometry x="-1" relative="1" as="geometry">
            <mxPoint x="-20" as="offset" />
          </mxGeometry>
        </mxCell>
        <mxCell id="1tiuXW9pdLS6u-hAlYC6-165" value="&lt;div style=&quot;text-align: center;&quot;&gt;&lt;span style=&quot;font-size: 11px;&quot;&gt;Заполняет&lt;/span&gt;&lt;/div&gt;" style="text;whiteSpace=wrap;html=1;fontSize=13;labelBackgroundColor=none;fillColor=default;" vertex="1" parent="1">
          <mxGeometry x="360" y="810" width="50" height="30" as="geometry" />
        </mxCell>
        <mxCell id="1tiuXW9pdLS6u-hAlYC6-166" value="0..n" style="resizable=0;align=left;verticalAlign=top;labelBackgroundColor=#ffffff;fontSize=10;strokeColor=#003366;shadow=1;fillColor=#D4E1F5;fontColor=#003366" connectable="0" vertex="1" parent="1">
          <mxGeometry x="299.67999999999984" y="280.9000000000001" as="geometry" />
        </mxCell>
        <mxCell id="1tiuXW9pdLS6u-hAlYC6-167" value="Logis" style="ellipse;whiteSpace=wrap;html=1;aspect=fixed;dashed=1;" vertex="1" parent="1">
          <mxGeometry x="190" y="270" width="50" height="50" as="geometry" />
        </mxCell>
        <mxCell id="1tiuXW9pdLS6u-hAlYC6-168" value="" style="endArrow=open;endSize=12;dashed=1;exitX=0.585;exitY=1.025;exitDx=0;exitDy=0;exitPerimeter=0;" edge="1" parent="1" target="1tiuXW9pdLS6u-hAlYC6-167" source="1tiuXW9pdLS6u-hAlYC6-124">
          <mxGeometry x="-140" y="-40" as="geometry">
            <mxPoint x="318.39999999999964" y="310.4499999999998" as="sourcePoint" />
            <mxPoint x="110" y="250" as="targetPoint" />
            <Array as="points">
              <mxPoint x="124" y="200" />
              <mxPoint x="130" y="220" />
              <mxPoint x="150" y="250" />
            </Array>
            <mxPoint x="-8" y="-4" as="offset" />
          </mxGeometry>
        </mxCell>
        <mxCell id="1tiuXW9pdLS6u-hAlYC6-169" value="создает" style="endArrow=open;endSize=12;dashed=1;exitX=0.978;exitY=0.711;exitDx=0;exitDy=0;exitPerimeter=0;entryX=0;entryY=0.333;entryDx=0;entryDy=0;entryPerimeter=0;" edge="1" parent="1" source="1tiuXW9pdLS6u-hAlYC6-167" target="1tiuXW9pdLS6u-hAlYC6-118">
          <mxGeometry as="geometry">
            <mxPoint x="230" y="120" as="sourcePoint" />
            <mxPoint x="138.76000000000022" y="425.00000000000045" as="targetPoint" />
            <Array as="points">
              <mxPoint x="310" y="320" />
              <mxPoint x="370" y="360" />
            </Array>
            <mxPoint x="-79" y="-23" as="offset" />
          </mxGeometry>
        </mxCell>
      </root>
    </mxGraphModel>
  </diagram>
</mxfile>
